<svg width="1910" height="594" viewBox="0 0 1910 594" fill="none" xmlns="http://www.w3.org/2000/svg">
<g clip-path="url(#clip0_1_455)">
<path d="M1906.32 429.722C1906.32 458.49 1897.13 483.662 1880.61 505.238C1864.08 526.814 1840.2 542.996 1808.98 553.784C1777.76 564.572 1741.03 571.764 1700.63 571.764C1638.18 571.764 1588.6 559.178 1550.03 532.208C1511.47 505.238 1491.26 471.076 1487.59 426.126H1619.82C1623.49 440.51 1630.84 453.096 1645.53 462.086C1660.22 471.076 1676.75 476.47 1698.79 476.47C1720.83 476.47 1737.36 472.874 1750.21 467.48C1763.07 462.086 1768.58 453.096 1768.58 440.51C1768.58 433.318 1766.74 427.924 1761.23 424.328C1755.72 420.732 1748.38 417.136 1737.36 415.338C1726.34 413.54 1706.14 409.944 1678.59 406.348C1619.82 399.156 1573.91 386.57 1544.52 370.388C1513.3 352.408 1498.61 325.438 1498.61 285.882C1498.61 242.73 1515.14 208.568 1551.87 181.598C1586.76 156.426 1632.68 142.042 1691.44 142.042C1753.89 142.042 1803.47 154.628 1842.04 179.8C1880.61 204.972 1900.81 237.336 1902.64 280.488H1768.58C1766.74 267.902 1761.23 258.912 1746.54 249.922C1733.68 242.73 1717.16 239.134 1695.12 239.134C1674.92 239.134 1660.22 242.73 1649.2 248.124C1638.18 253.518 1632.68 262.508 1632.68 273.296C1632.68 282.286 1638.18 289.478 1649.2 293.074C1660.22 296.67 1680.42 300.266 1709.81 302.064C1715.32 302.064 1720.83 303.862 1726.34 303.862C1783.27 309.256 1827.35 321.842 1860.4 339.822C1891.62 356.004 1906.32 386.57 1906.32 429.722ZM1480.24 152.83V569.966H1337V158.224C1337 156.426 1338.83 152.83 1342.51 152.83H1480.24ZM1076.21 7.19238H932.962V125.86H1076.21V7.19238Z" fill="white"/>
<path d="M1480.24 7.19238V125.86H1338.83C1318.63 125.86 1309.45 134.85 1309.45 152.83V568.168H1166.2V271.498H1074.37V569.966H931.125V152.83H1164.36V124.062C1164.36 88.1024 1177.22 57.5364 1201.09 37.7584C1226.8 17.9804 1261.7 7.19238 1303.94 7.19238H1480.24ZM905.414 7.19238V569.966H773.185V508.834C741.964 551.986 699.724 575.36 642.792 575.36C606.061 575.36 571.168 566.37 541.783 548.39C512.399 530.41 490.361 505.238 473.832 472.874C457.303 440.51 448.121 402.752 448.121 361.398C448.121 320.044 457.303 282.286 473.832 248.124C490.361 215.76 512.399 190.588 543.62 174.406C573.004 156.426 606.061 149.234 642.792 149.234C692.378 149.234 732.781 165.416 762.166 199.578V7.19238H905.414ZM762.166 359.6C762.166 329.034 754.819 303.862 740.127 285.882C725.435 267.902 705.233 257.114 677.686 257.114C650.138 257.114 631.773 266.104 615.244 285.882C600.552 303.862 591.369 329.034 591.369 359.6C591.369 390.166 598.715 415.338 615.244 433.318C631.773 451.298 651.974 462.086 677.686 462.086C703.397 462.086 725.435 453.096 740.127 433.318C754.819 415.338 762.166 390.166 762.166 359.6Z" fill="white"/>
<path d="M448.121 445.904V569.966H0.0100708V7.19238H449.957V129.456H143.259V215.76H415.063V339.822H143.259V445.904H448.121Z" fill="white"/>
<path d="M1891.62 7.19238L1878.77 52.1424C1875.1 37.7584 1869.59 21.5764 1865.91 7.19238H1849.38V66.5264H1860.4V19.7784C1862.24 25.1724 1864.08 30.5664 1864.08 35.9604C1867.75 44.9504 1869.59 55.7384 1873.26 64.7284H1884.28C1887.95 55.7384 1889.79 44.9504 1893.46 35.9604C1895.3 30.5664 1897.13 25.1724 1898.97 19.7784V64.7284H1909.99V7.19238H1891.62Z" fill="white"/>
<path d="M1786.94 16.1824H1807.14V66.5264H1818.16V16.1824H1838.37V7.19238H1786.94V16.1824Z" fill="white"/>
<path d="M1788.78 7.19253H1805.31L1814.49 35.9605C1816.33 44.9505 1818.16 52.1425 1818.16 52.1425C1818.16 52.1425 1820 43.1525 1821.84 35.9605L1831.02 5.39453H1849.38V64.7285H1836.53V32.3645C1836.53 26.9705 1836.53 19.7785 1836.53 19.7785C1836.53 19.7785 1834.69 26.9705 1834.69 30.5665L1823.67 66.5265H1812.65L1801.63 30.5665C1801.63 26.9705 1799.8 19.7785 1799.8 19.7785C1799.8 19.7785 1799.8 26.9705 1799.8 32.3645V66.5265H1788.78V7.19253Z" fill="white"/>
<path d="M1854.89 35.9605C1854.89 17.9805 1865.91 5.39453 1884.28 5.39453C1898.97 5.39453 1908.15 14.3845 1909.99 25.1725H1897.13C1895.3 19.7785 1891.62 14.3845 1884.28 14.3845C1873.26 14.3845 1867.75 23.3745 1867.75 35.9605C1867.75 48.5465 1875.1 57.5365 1884.28 57.5365C1891.62 57.5365 1897.13 53.9405 1897.13 46.7485H1909.99C1909.99 52.1425 1908.15 57.5365 1902.64 61.1325C1898.97 64.7285 1893.46 68.3245 1884.28 68.3245C1867.75 68.3245 1854.89 53.9405 1854.89 35.9605Z" fill="white"/>
</g>
<defs>
<clipPath id="clip0_1_455">
<rect width="1910" height="593.34" fill="white"/>
</clipPath>
</defs>
</svg>
