<svg width="19" height="19" viewBox="0 0 19 19" fill="none" xmlns="http://www.w3.org/2000/svg">
<path fill-rule="evenodd" clip-rule="evenodd" d="M5.00302 2.77341C4.97802 1.66341 4.18402 0.816406 2.89502 0.816406C1.60502 0.816406 0.762024 1.66241 0.762024 2.77341C0.762024 3.86041 1.58002 4.73041 2.84602 4.73041H2.87002C4.18402 4.73041 5.00302 3.86041 5.00302 2.77341ZM4.75502 6.27641H0.985024V17.6024H4.75502V6.27641ZM14.009 6.01041C16.489 6.01041 18.349 7.63041 18.349 11.1084V17.6024H14.579V11.5424C14.579 10.0214 14.034 8.98241 12.669 8.98241C11.629 8.98241 11.008 9.68241 10.735 10.3594C10.635 10.6014 10.611 10.9394 10.611 11.2774V17.6024H6.84102C6.84102 17.6024 6.89102 7.33941 6.84102 6.27741H10.611V7.88041C11.111 7.10941 12.008 6.01041 14.009 6.01041Z" fill="white"/>
</svg>
