<svg width="20" height="35" viewBox="0 0 20 35" fill="none" xmlns="http://www.w3.org/2000/svg">
<g clip-path="url(#clip0_1_53)">
<mask id="mask0_1_53" style="mask-type:luminance" maskUnits="userSpaceOnUse" x="0" y="0" width="20" height="34">
<path d="M19.1706 0H0.00134277V33.9039H19.1706V0Z" fill="white"/>
</mask>
<g mask="url(#mask0_1_53)">
<path d="M3.22318 3.46652C4.91069 1.77957 7.19944 0.831848 9.5859 0.831848C11.9724 0.831848 14.2612 1.77957 15.9487 3.46652C17.6362 5.15348 18.5842 7.44148 18.5842 9.82722V24.0767C18.5842 26.4623 17.6362 28.7503 15.9487 30.4373C14.2612 32.1242 11.9724 33.072 9.5859 33.072C7.19944 33.072 4.91069 32.1242 3.22318 30.4373C1.53568 28.7503 0.587646 26.4623 0.587646 24.0767V9.82722C0.587646 7.44148 1.53568 5.15348 3.22318 3.46652Z" stroke="white" stroke-width="1.00891"/>
<path d="M9.58621 12.284C9.3689 12.284 9.16054 12.1977 9.00691 12.0441C8.85327 11.8905 8.76697 11.6822 8.76697 11.465V8.18929C8.76697 7.97209 8.85327 7.7638 9.00691 7.61022C9.16054 7.45664 9.3689 7.37036 9.58621 7.37036C9.80342 7.37036 10.0118 7.45664 10.1655 7.61022C10.3191 7.7638 10.4053 7.97209 10.4053 8.18929V11.465C10.4053 11.6822 10.3191 11.8905 10.1655 12.0441C10.0118 12.1977 9.80342 12.284 9.58621 12.284Z" fill="white"/>
</g>
</g>
<defs>
<clipPath id="clip0_1_53">
<rect width="20" height="34.27" fill="white"/>
</clipPath>
</defs>
</svg>
