<svg width="50" height="102" viewBox="0 0 50 102" fill="none" xmlns="http://www.w3.org/2000/svg">
<rect width="40" height="40" rx="20" fill="#1B2C50"/>
<path fill-rule="evenodd" clip-rule="evenodd" d="M20.0836 13.0959C22.3294 13.0959 22.5954 13.1035 23.4821 13.144C25.7621 13.2479 26.8261 14.3321 26.9312 16.5969C26.9718 17.4849 26.9794 17.7521 26.9794 20.0017C26.9794 22.2513 26.9705 22.5173 26.9312 23.4053C26.8261 25.6688 25.7646 26.7543 23.4821 26.8582C22.5954 26.8987 22.3294 26.9063 20.0836 26.9063C17.8366 26.9063 17.5706 26.8987 16.6839 26.8582C14.3988 26.7531 13.3399 25.665 13.236 23.404C13.1955 22.5173 13.1866 22.2513 13.1866 20.0005C13.1866 17.7509 13.1955 17.4849 13.236 16.5969C13.3399 14.3321 14.4014 13.2479 16.6839 13.144C17.5706 13.1035 17.8366 13.0959 20.0836 13.0959ZM20.0836 11.5771C17.7986 11.5771 17.5123 11.5873 16.6155 11.6278C13.5603 11.7671 11.863 13.4645 11.7224 16.5273C11.6818 17.4266 11.6717 17.7129 11.6717 20.0005C11.6717 22.2881 11.6818 22.5756 11.7224 23.4737C11.8617 26.5327 13.5565 28.2325 16.6142 28.3731C17.5136 28.4137 17.7986 28.4238 20.0836 28.4238C22.3674 28.4238 22.655 28.4137 23.5518 28.3731C26.6044 28.2338 28.3056 26.5365 28.4436 23.4737C28.4854 22.5743 28.4943 22.2881 28.4943 20.0005C28.4943 17.7129 28.4854 17.4266 28.4436 16.5285C28.3068 13.4721 26.6095 11.7671 23.5518 11.6278C22.6537 11.5873 22.3687 11.5771 20.0836 11.5771ZM20.0836 15.6748C18.9373 15.6758 17.8383 16.1321 17.0283 16.9433C16.2183 17.7545 15.7636 18.8541 15.7643 20.0005C15.7636 21.1468 16.2183 22.2465 17.0283 23.0577C17.8383 23.8689 18.9373 24.3251 20.0836 24.3261C21.23 24.3251 22.329 23.8689 23.139 23.0577C23.949 22.2465 24.4036 21.1468 24.403 20.0005C24.4036 18.8541 23.949 17.7545 23.139 16.9433C22.329 16.1321 21.23 15.6758 20.0836 15.6748ZM20.0836 22.8087C19.7151 22.8085 19.3502 22.7357 19.0097 22.5945C18.6693 22.4533 18.3601 22.2464 18.0996 21.9856C17.8392 21.7248 17.6327 21.4153 17.4919 21.0747C17.3512 20.734 17.2789 20.369 17.2792 20.0005C17.2792 18.4501 18.5345 17.1923 20.0836 17.1923C21.6315 17.1923 22.8868 18.4501 22.8868 20.0005C22.8871 20.3689 22.8148 20.7338 22.6742 21.0744C22.5335 21.4149 22.3271 21.7244 22.0668 21.9851C21.8065 22.2459 21.4974 22.4528 21.1571 22.5941C20.8168 22.7354 20.4521 22.8083 20.0836 22.8087ZM24.574 14.4943C24.4383 14.4895 24.303 14.512 24.1763 14.5607C24.0495 14.6093 23.9339 14.6829 23.8362 14.7772C23.7385 14.8714 23.6608 14.9844 23.6078 15.1094C23.5547 15.2343 23.5274 15.3687 23.5274 15.5044C23.5274 15.6402 23.5547 15.7746 23.6078 15.8995C23.6608 16.0245 23.7385 16.1375 23.8362 16.2317C23.9339 16.326 24.0495 16.3996 24.1763 16.4482C24.303 16.4968 24.4383 16.5194 24.574 16.5146C24.8357 16.5053 25.0836 16.3949 25.2655 16.2064C25.4473 16.018 25.549 15.7663 25.549 15.5044C25.549 15.2426 25.4473 14.9909 25.2655 14.8025C25.0836 14.614 24.8357 14.5036 24.574 14.4943Z" fill="white"/>
</svg>
