<svg width="23" height="15" viewBox="0 0 23 15" fill="none" xmlns="http://www.w3.org/2000/svg">
<g clip-path="url(#clip0_1_177)">
<mask id="mask0_1_177" style="mask-type:luminance" maskUnits="userSpaceOnUse" x="0" y="0" width="15" height="15">
<path d="M15 0H0V15H15V0Z" fill="white"/>
</mask>
<g mask="url(#mask0_1_177)">
<path d="M7.5 15C11.6421 15 15 11.6421 15 7.5C15 3.35786 11.6421 0 7.5 0C3.35786 0 0 3.35786 0 7.5C0 11.6421 3.35786 15 7.5 15Z" fill="white"/>
<path d="M6.25523 11.8049L2.50523 8.05488C2.38236 7.91146 2.31816 7.72688 2.32545 7.5381C2.33274 7.34938 2.41099 7.17031 2.54456 7.03673C2.67813 6.90316 2.85719 6.82491 3.04594 6.81762C3.2347 6.81033 3.41926 6.87453 3.56273 6.9974L6.25523 9.68988L11.3403 4.6049C11.4837 4.48203 11.6683 4.41783 11.857 4.42512C12.0458 4.43241 12.2248 4.51066 12.3584 4.64423C12.492 4.7778 12.5703 4.95685 12.5775 5.14561C12.5848 5.33437 12.5206 5.51893 12.3978 5.6624L6.25523 11.8049Z" fill="#1B2C50"/>
</g>
</g>
<defs>
<clipPath id="clip0_1_177">
<rect width="15" height="15" fill="white"/>
</clipPath>
</defs>
</svg>
